<?xml version="1.0" standalone="no"?>
<!DOCTYPE svg PUBLIC "-//W3C//DTD SVG 20010904//EN"
 "http://www.w3.org/TR/2001/REC-SVG-20010904/DTD/svg10.dtd">
<svg version="1.0" xmlns="http://www.w3.org/2000/svg"
 width="784.000000pt" height="784.000000pt" viewBox="0 0 784.000000 784.000000"
 preserveAspectRatio="xMidYMid meet">
<metadata>
Created by potrace 1.14, written by Peter Selinger 2001-2017
</metadata>
<g transform="translate(0.000000,784.000000) scale(0.100000,-0.100000)"
fill="#000000" stroke="none">
<path d="M0 3920 l0 -3920 3920 0 3920 0 0 3920 0 3920 -3920 0 -3920 0 0
-3920z m7520 2770 l25 -19 0 -433 c0 -398 -1 -436 -18 -461 -33 -50 -99 -44
-136 12 -13 21 -15 64 -14 298 1 150 -2 273 -6 273 -9 0 -169 -216 -292 -397
-57 -84 -145 -213 -194 -285 -50 -73 -179 -261 -286 -418 -108 -157 -246 -359
-307 -450 -62 -91 -125 -183 -140 -205 -15 -22 -86 -125 -156 -230 -139 -205
-254 -373 -417 -612 -57 -83 -133 -195 -169 -248 -36 -53 -70 -102 -75 -109
-6 -6 -35 -49 -65 -96 -30 -46 -111 -166 -179 -265 -179 -260 -271 -396 -415
-610 -161 -239 -523 -772 -596 -875 -30 -43 -98 -142 -150 -220 -157 -234
-220 -320 -234 -320 -7 0 -24 12 -38 27 -21 23 -320 462 -448 658 -58 88 -264
391 -365 535 -52 74 -133 191 -180 260 -48 69 -119 172 -160 230 -103 147
-248 358 -390 565 -134 197 -203 297 -305 445 -52 74 -116 169 -144 210 -28
41 -53 77 -56 80 -3 3 -9 12 -15 21 -14 23 -122 179 -171 247 -40 57 -78 112
-371 542 -84 124 -218 320 -299 435 -370 531 -396 572 -389 594 15 50 83 71
131 42 26 -16 128 -140 159 -193 15 -26 82 -122 156 -223 36 -49 74 -105 84
-122 11 -18 23 -33 27 -33 4 0 8 -5 8 -12 0 -6 17 -34 38 -62 21 -28 46 -64
56 -79 9 -16 27 -39 38 -52 11 -13 26 -33 32 -44 6 -11 23 -37 37 -58 252
-364 407 -590 420 -612 9 -15 42 -63 73 -106 93 -133 289 -417 413 -600 41
-60 81 -119 89 -130 29 -40 147 -211 234 -339 467 -685 622 -898 730 -1006 82
-82 109 -102 195 -144 113 -56 119 -59 195 -83 60 -19 292 -25 383 -10 119 19
306 112 402 198 17 15 42 38 56 51 45 39 225 291 421 588 10 14 84 123 165
242 268 393 446 656 558 821 61 89 180 264 265 390 138 203 258 380 616 907
58 85 139 205 181 265 42 61 109 159 150 218 41 59 98 142 127 185 29 42 87
127 129 187 198 287 270 395 265 400 -5 5 -309 -64 -416 -94 -44 -12 -137 -7
-157 9 -8 7 -15 28 -15 49 0 47 28 75 90 91 25 6 56 15 70 20 14 5 36 11 50
14 14 2 131 31 260 65 129 33 269 69 310 80 95 24 100 24 130 1z m-1833 -778
c13 -15 23 -34 23 -43 0 -15 -201 -323 -349 -534 -34 -49 -101 -146 -147 -215
-47 -69 -154 -226 -239 -350 -84 -124 -243 -357 -352 -518 -306 -452 -538
-793 -648 -952 -28 -41 -82 -120 -120 -175 -85 -125 -102 -144 -142 -161 -44
-19 -81 -4 -118 48 -30 42 -213 311 -342 503 -37 55 -151 222 -253 370 -102
149 -216 315 -252 370 -37 55 -121 179 -187 275 -66 96 -167 245 -225 330 -57
85 -131 193 -163 240 -33 47 -117 171 -188 275 -70 105 -166 245 -213 313 -98
143 -107 166 -80 204 40 57 116 42 166 -35 15 -23 31 -46 35 -52 16 -20 184
-263 282 -409 55 -81 134 -195 175 -254 42 -59 150 -217 241 -352 251 -372
371 -550 410 -605 19 -27 69 -99 109 -160 41 -60 78 -114 83 -120 8 -10 146
-214 374 -552 88 -132 118 -169 127 -160 15 17 32 42 178 257 68 102 169 250
223 330 54 80 144 213 200 295 150 223 315 465 344 506 14 20 32 45 38 55 7
11 46 69 87 129 227 335 319 470 389 568 43 61 83 119 88 129 21 40 289 414
323 452 31 34 39 38 68 32 18 -3 43 -18 55 -34z m-4541 -4 c22 -10 58 -59 217
-288 182 -264 211 -306 295 -425 125 -177 172 -244 287 -410 57 -82 120 -172
139 -200 20 -27 70 -99 112 -160 43 -60 121 -172 176 -248 54 -76 98 -143 98
-149 0 -11 -40 -47 -53 -48 -4 0 -26 -9 -49 -20 -48 -23 -30 -41 -162 150 -52
74 -122 173 -155 220 -33 47 -90 130 -128 184 -37 54 -84 121 -103 148 -19 27
-79 113 -133 191 -54 78 -141 203 -192 277 -52 74 -134 194 -183 265 -188 275
-206 301 -224 321 -10 11 -18 24 -18 28 0 5 -13 25 -29 45 -51 65 -48 94 12
124 29 15 55 14 93 -5z"/>
</g>
</svg>
