<?xml version="1.0" standalone="no"?>
<!DOCTYPE svg PUBLIC "-//W3C//DTD SVG 20010904//EN"
 "http://www.w3.org/TR/2001/REC-SVG-20010904/DTD/svg10.dtd">
<svg version="1.0" xmlns="http://www.w3.org/2000/svg"
 width="1500.000000pt" height="1500.000000pt" viewBox="0 0 1500.000000 1500.000000"
 preserveAspectRatio="xMidYMid meet">
<metadata>
Created by potrace 1.14, written by Peter Selinger 2001-2017
</metadata>
<g transform="translate(0.000000,1500.000000) scale(0.100000,-0.100000)"
fill="#000000" stroke="none">
<path d="M11633 10759 c-23 -8 -79 -20 -105 -22 -10 -1 -18 -4 -18 -8 0 -4 -8
-6 -17 -4 -10 1 -22 0 -28 -4 -5 -3 -12 -6 -15 -7 -55 -10 -80 -18 -80 -26 0
-5 -5 -6 -10 -3 -6 4 -18 1 -27 -7 -14 -11 -16 -11 -9 0 7 11 4 12 -13 3 -12
-7 -26 -9 -31 -6 -6 3 -10 1 -10 -5 0 -7 -7 -10 -15 -6 -8 3 -15 0 -15 -6 0
-6 -3 -9 -6 -5 -3 3 -25 0 -49 -8 -24 -7 -46 -10 -49 -7 -4 3 -6 0 -6 -6 0 -6
-7 -9 -15 -6 -9 4 -15 0 -15 -7 0 -11 -3 -11 -10 1 -7 11 -10 12 -10 2 0 -8
-6 -12 -12 -9 -7 2 -22 0 -33 -6 -11 -6 -29 -12 -40 -14 -29 -4 -60 -11 -60
-14 0 -1 -34 -8 -62 -11 -7 -1 -13 -4 -13 -8 0 -3 -8 -6 -17 -6 -37 -2 -78
-14 -81 -24 -2 -5 -8 -8 -13 -5 -11 7 -60 -25 -54 -35 3 -4 -1 -10 -8 -13 -19
-7 -12 -65 10 -86 10 -10 27 -18 38 -19 56 -4 129 -1 134 6 3 4 17 8 31 9 37
2 63 8 78 16 6 5 12 6 12 3 0 -3 11 -1 26 4 14 6 39 13 57 16 45 8 62 12 62
14 0 1 16 4 35 7 19 2 42 9 52 14 10 6 23 7 28 4 6 -3 10 -2 10 3 0 9 2 9 55
14 17 2 33 8 38 13 4 6 13 2 23 -10 13 -18 13 -21 -2 -32 -9 -7 -13 -17 -8
-25 4 -7 4 -10 -1 -6 -9 9 -45 -29 -45 -48 0 -7 -6 -17 -13 -21 -8 -4 -48 -58
-89 -120 -42 -62 -79 -109 -83 -105 -3 4 -5 2 -3 -4 4 -12 -43 -84 -55 -84 -5
0 -5 -4 -2 -10 3 -5 1 -10 -6 -10 -7 0 -10 -3 -6 -6 3 -3 -3 -15 -14 -27 -10
-11 -19 -27 -19 -34 0 -8 -4 -12 -8 -9 -4 2 -13 -8 -20 -23 -7 -15 -21 -37
-32 -49 -11 -12 -20 -26 -20 -32 0 -5 -4 -10 -9 -10 -5 0 -16 -16 -25 -35 -9
-19 -21 -35 -26 -35 -6 0 -10 -7 -10 -15 0 -8 -5 -15 -12 -15 -6 0 -8 -3 -5
-7 4 -3 -3 -16 -16 -28 -12 -11 -23 -28 -25 -36 -2 -7 -8 -15 -13 -17 -5 -2
-9 -10 -9 -17 0 -7 -7 -15 -15 -19 -8 -3 -15 -12 -15 -19 0 -8 -13 -29 -29
-48 -16 -18 -27 -37 -25 -41 3 -4 0 -8 -6 -8 -6 0 -15 -11 -20 -25 -5 -14 -14
-25 -20 -25 -5 0 -10 -6 -10 -14 0 -7 -7 -19 -15 -26 -8 -7 -12 -16 -9 -21 3
-5 1 -9 -4 -9 -6 0 -25 -23 -43 -51 -18 -28 -37 -56 -44 -62 -6 -7 -24 -33
-39 -59 -15 -27 -32 -48 -37 -48 -5 0 -9 -7 -9 -15 0 -8 -5 -15 -11 -15 -5 0
-7 -5 -4 -10 3 -6 -1 -13 -9 -16 -9 -3 -16 -12 -16 -19 0 -7 -7 -15 -15 -19
-8 -3 -14 -9 -13 -13 4 -12 -53 -93 -65 -93 -6 0 -7 -3 -4 -6 7 -7 -29 -63
-48 -76 -5 -4 -6 -8 -2 -8 8 0 -2 -13 -35 -51 -10 -10 -15 -19 -12 -19 4 0 1
-6 -5 -13 -6 -8 -9 -17 -6 -20 3 -4 2 -5 -1 -2 -8 5 -64 -70 -64 -85 0 -5 -4
-10 -10 -10 -5 0 -10 -5 -10 -11 0 -6 -6 -17 -12 -24 -31 -34 -36 -43 -31 -49
4 -3 1 -6 -5 -6 -7 0 -12 -7 -12 -15 0 -8 -4 -15 -8 -15 -10 0 -43 -56 -37
-64 3 -3 2 -4 -2 -1 -8 7 -43 -46 -37 -56 2 -4 -5 -10 -16 -14 -11 -4 -18 -11
-15 -16 4 -5 2 -9 -4 -9 -6 0 -7 -7 -4 -17 4 -10 2 -14 -4 -10 -6 4 -19 -9
-29 -28 -10 -19 -22 -35 -26 -35 -5 0 -8 -6 -8 -14 0 -8 -7 -16 -15 -20 -8 -3
-15 -12 -15 -20 0 -8 -7 -21 -15 -29 -8 -8 -16 -21 -17 -28 -2 -8 -13 -24 -25
-36 -13 -12 -23 -26 -23 -31 0 -4 -9 -18 -20 -30 -12 -12 -18 -22 -15 -22 4 0
0 -7 -7 -15 -26 -29 -38 -44 -38 -50 0 -11 -94 -135 -102 -135 -5 0 -7 -4 -3
-9 3 -5 -2 -16 -10 -25 -9 -8 -17 -19 -18 -23 -1 -4 -5 -7 -9 -6 -5 2 -8 -4
-8 -13 0 -8 -6 -22 -12 -29 -30 -33 -38 -45 -38 -54 0 -6 -10 -19 -22 -31 -12
-11 -18 -20 -14 -20 4 0 0 -7 -8 -16 -9 -8 -13 -20 -10 -26 4 -6 2 -8 -3 -5
-9 6 -83 -92 -83 -109 0 -3 -6 -12 -12 -19 -29 -33 -38 -45 -38 -53 0 -5 -11
-22 -25 -38 -14 -16 -25 -33 -25 -39 0 -5 -16 -28 -35 -50 -19 -22 -35 -45
-35 -52 0 -7 -4 -13 -10 -13 -5 0 -10 -7 -10 -15 0 -8 -4 -15 -10 -15 -5 0
-17 -16 -26 -35 -9 -19 -20 -35 -25 -35 -5 0 -9 -5 -9 -10 0 -12 -41 -73 -52
-78 -5 -2 -8 -9 -8 -15 0 -7 -11 -25 -25 -41 -13 -16 -22 -33 -18 -39 3 -5 1
-7 -4 -4 -6 4 -16 -7 -23 -23 -7 -17 -16 -30 -21 -30 -5 0 -11 -11 -15 -25 -3
-14 -10 -22 -15 -19 -8 5 -13 -9 -10 -28 0 -5 -6 -8 -15 -8 -8 0 -12 -5 -9
-10 3 -6 -1 -13 -10 -16 -13 -6 -14 -8 -3 -15 10 -7 9 -9 -4 -9 -10 0 -18 -5
-18 -10 0 -6 -5 -16 -10 -23 -40 -47 -50 -61 -50 -70 0 -5 -9 -18 -21 -28 -11
-9 -20 -21 -19 -26 2 -11 -33 -63 -42 -63 -5 0 -8 -5 -8 -10 0 -6 -4 -16 -10
-23 -49 -60 -61 -77 -53 -77 4 0 -1 -7 -11 -15 -11 -8 -16 -15 -12 -15 4 0 1
-7 -6 -15 -32 -35 -91 -125 -83 -125 3 0 -5 -11 -19 -24 -15 -13 -26 -28 -26
-35 0 -6 -5 -11 -12 -11 -6 0 -8 -3 -5 -6 4 -4 -3 -15 -14 -25 -11 -9 -20 -20
-20 -23 3 -20 0 -26 -9 -21 -5 3 -10 -1 -10 -9 0 -8 -7 -22 -16 -30 -8 -9 -12
-16 -8 -16 4 0 -3 -9 -16 -20 -13 -11 -20 -20 -16 -20 7 0 -3 -14 -35 -49 -8
-9 -13 -23 -11 -31 3 -7 0 -10 -7 -6 -6 4 -11 1 -11 -8 0 -9 -4 -16 -10 -16
-5 0 -10 -7 -10 -15 0 -8 -4 -15 -10 -15 -5 0 -10 -7 -10 -15 0 -8 -4 -15 -10
-15 -5 0 -10 -6 -10 -13 0 -7 -9 -19 -19 -27 -11 -7 -18 -17 -15 -21 3 -5 -4
-17 -16 -29 -11 -11 -20 -24 -20 -30 0 -5 -3 -10 -8 -10 -4 0 -13 -13 -20 -30
-8 -16 -20 -30 -28 -30 -9 0 -13 -4 -10 -9 3 -5 -4 -20 -17 -34 -12 -14 -38
-43 -57 -65 -19 -22 -37 -39 -41 -36 -4 2 -10 -5 -14 -16 -3 -11 -13 -20 -21
-20 -8 0 -13 -3 -11 -7 3 -5 -1 -14 -9 -21 -8 -7 -14 -8 -14 -3 0 5 -16 -6
-36 -25 -20 -19 -43 -34 -50 -34 -8 0 -14 -4 -14 -10 0 -5 -6 -10 -14 -10 -8
0 -16 -7 -20 -15 -3 -8 -15 -15 -26 -15 -11 0 -20 -5 -20 -11 0 -5 -4 -7 -10
-4 -6 3 -10 2 -10 -3 0 -8 -38 -27 -65 -32 -2 -1 -17 -7 -32 -15 -14 -8 -30
-12 -35 -9 -4 3 -8 0 -8 -6 0 -7 -7 -10 -15 -6 -8 3 -15 2 -15 -3 0 -4 -6 -9
-12 -10 -7 -1 -26 -3 -43 -5 -16 -3 -32 -5 -35 -6 -3 -1 -8 -2 -12 -1 -5 0 -8
-3 -8 -7 0 -5 -7 -9 -15 -9 -8 0 -15 5 -15 10 0 5 -7 4 -15 -3 -18 -15 -305
-15 -305 0 0 5 -27 10 -67 13 -7 0 -13 3 -13 6 0 4 -12 8 -27 9 -16 1 -30 7
-31 12 -2 6 -14 10 -26 10 -13 0 -26 3 -30 8 -8 7 -13 8 -42 11 -8 0 -12 6 -9
11 3 6 -3 10 -14 10 -11 0 -23 5 -26 10 -3 6 -13 10 -21 10 -8 0 -24 9 -36 20
-12 10 -25 17 -30 14 -4 -3 -8 -1 -8 5 0 5 -10 13 -22 17 -13 4 -33 18 -45 31
-12 13 -25 23 -28 23 -21 -1 -26 1 -21 9 3 5 -10 19 -29 32 -19 13 -35 27 -35
31 0 4 -18 25 -41 48 -22 22 -38 40 -34 40 3 0 -5 11 -19 24 -15 13 -26 28
-26 34 0 5 -7 13 -16 16 -9 4 -14 9 -11 12 3 4 1 12 -6 19 -7 6 -21 24 -32 40
-11 16 -30 39 -42 52 -13 13 -23 27 -24 31 -4 20 -14 37 -40 65 -16 17 -29 36
-29 42 0 6 -9 16 -20 23 -12 7 -18 17 -15 22 3 6 1 10 -5 10 -6 0 -8 5 -5 10
3 6 2 10 -2 10 -5 0 -27 28 -50 63 -23 34 -51 72 -62 84 -14 15 -17 23 -8 26
8 4 9 6 0 6 -11 1 -93 114 -93 128 0 5 -9 14 -21 21 -12 7 -18 16 -15 19 3 3
-4 14 -16 24 -11 11 -17 19 -12 19 5 0 0 7 -10 15 -11 8 -17 15 -13 15 5 0 3
6 -2 13 -46 55 -62 77 -57 77 3 0 -2 9 -11 19 -32 35 -44 51 -38 51 5 0 -45
71 -75 107 -5 7 -10 16 -10 21 0 5 -7 15 -15 22 -9 7 -13 15 -11 18 3 2 -6 13
-19 24 -14 11 -23 24 -20 29 4 5 1 9 -4 9 -6 0 -11 6 -11 14 0 8 -10 22 -22
31 -13 8 -22 19 -22 23 3 15 -8 32 -17 26 -5 -3 -9 4 -9 14 0 11 -7 22 -15 26
-8 3 -15 12 -15 21 0 8 -5 15 -12 15 -6 0 -9 3 -6 6 4 3 -2 14 -13 25 -10 10
-19 26 -19 34 0 8 -7 15 -15 15 -8 0 -15 5 -15 11 0 6 -14 31 -32 56 -17 26
-31 52 -31 59 0 7 -4 11 -8 8 -4 -2 -13 6 -20 18 -6 13 -21 31 -33 41 -11 10
-15 16 -8 12 6 -3 12 -3 12 0 0 11 -27 34 -34 30 -3 -3 -4 -2 -1 1 2 4 -10 27
-28 53 -31 45 -38 54 -65 86 -7 8 -9 15 -5 15 4 1 -3 10 -16 20 -13 11 -20 20
-16 20 7 0 -29 54 -57 84 -10 11 -18 26 -18 33 0 7 -4 13 -10 13 -5 0 -10 6
-10 14 0 8 -7 17 -16 20 -8 3 -12 10 -9 16 3 5 3 10 -2 10 -7 0 -45 57 -41 63
1 1 -9 14 -22 29 -40 43 -49 56 -43 62 3 3 -2 8 -11 12 -9 3 -16 12 -16 19 0
7 -3 15 -8 17 -4 2 -30 37 -57 78 -28 41 -53 77 -56 80 -3 3 -14 21 -25 40
-10 19 -28 43 -38 53 -10 9 -16 17 -12 17 7 0 -5 17 -41 56 -13 14 -23 29 -23
35 0 5 -9 19 -20 31 -11 12 -20 28 -20 35 0 7 -4 13 -8 13 -4 0 -28 30 -52 68
-24 37 -46 69 -49 72 -3 3 -12 17 -20 33 -8 15 -18 27 -23 27 -4 0 -8 6 -8 13
0 8 -9 22 -20 32 -11 10 -20 22 -20 28 0 5 -8 17 -19 26 -10 9 -21 26 -25 39
-4 12 -14 22 -22 22 -8 0 -13 4 -9 9 3 5 -2 16 -10 25 -9 8 -16 18 -15 21 1
21 -1 25 -10 20 -5 -3 -10 0 -10 8 0 8 -9 22 -20 32 -11 10 -20 24 -20 32 0 7
-4 13 -10 13 -5 0 -10 7 -10 15 0 9 -7 18 -15 21 -8 4 -13 9 -10 13 2 4 -5 14
-16 21 -10 8 -19 19 -19 25 0 6 -20 38 -44 72 -25 34 -42 64 -39 67 4 3 -1 6
-11 6 -9 0 -14 5 -11 10 3 6 1 10 -4 10 -6 0 -11 7 -11 15 0 8 -4 15 -10 15
-5 0 -10 5 -10 10 0 6 -9 20 -20 32 -11 12 -25 34 -32 49 -7 15 -15 26 -19 23
-4 -2 -13 9 -21 26 -7 16 -16 30 -20 30 -5 0 -8 7 -8 15 0 8 -4 15 -10 15 -5
0 -10 6 -10 13 0 8 -11 24 -25 37 -13 12 -22 27 -19 31 3 5 1 9 -3 9 -11 0
-78 102 -75 113 1 5 -2 6 -7 3 -9 -6 -26 22 -23 37 1 4 -5 7 -13 7 -8 0 -15 9
-15 21 0 11 -4 17 -10 14 -5 -3 -10 0 -10 8 0 12 -9 26 -50 74 -5 7 -10 16
-10 20 0 5 -9 14 -20 21 -11 7 -20 18 -20 25 0 7 -12 21 -27 32 -15 11 -34 27
-43 35 -9 9 -28 14 -49 12 -38 -4 -84 -30 -75 -43 3 -5 0 -9 -6 -9 -6 0 -8 -4
-5 -10 3 -5 1 -10 -5 -10 -8 0 -8 -4 0 -12 20 -25 60 -89 60 -98 0 -5 6 -13
13 -17 7 -4 19 -22 26 -40 7 -17 19 -34 27 -37 8 -3 14 -12 14 -20 0 -7 7 -16
15 -20 8 -3 15 -12 15 -21 0 -8 5 -15 10 -15 6 0 10 -5 10 -10 0 -12 40 -71
55 -82 6 -4 6 -8 1 -8 -5 0 3 -11 18 -25 14 -13 26 -34 26 -47 0 -16 3 -19 9
-10 6 10 14 1 29 -30 11 -24 30 -53 41 -65 12 -12 21 -27 21 -33 0 -5 5 -10
10 -10 6 0 10 -7 10 -15 0 -8 5 -15 10 -15 6 0 10 -7 10 -15 0 -8 5 -15 10
-15 6 0 10 -5 10 -11 0 -7 8 -18 18 -26 11 -9 11 -12 2 -8 -8 4 -3 -4 12 -17
15 -14 25 -28 22 -31 -4 -3 6 -17 21 -31 17 -16 24 -30 19 -38 -4 -7 -4 -10 1
-6 8 8 45 -33 45 -51 0 -6 5 -11 10 -11 6 0 10 -7 10 -15 0 -8 5 -15 10 -15 6
0 10 -6 10 -14 0 -8 7 -17 16 -20 8 -3 12 -10 9 -16 -3 -5 -2 -10 3 -10 5 0
15 -12 23 -27 7 -16 24 -38 37 -50 12 -12 23 -26 24 -30 5 -31 12 -43 25 -43
8 0 13 -5 11 -12 -2 -6 3 -20 11 -29 31 -34 41 -48 41 -57 0 -4 8 -17 18 -28
9 -10 28 -36 42 -56 14 -21 29 -38 33 -38 5 0 6 -4 2 -9 -3 -5 0 -15 7 -23 26
-28 61 -82 61 -94 0 -7 3 -11 7 -9 3 2 17 -14 30 -36 14 -21 28 -39 33 -39 4
0 6 -4 2 -9 -3 -6 3 -14 12 -20 10 -6 14 -11 10 -11 -5 0 -2 -7 5 -15 30 -33
38 -45 38 -55 0 -5 5 -10 10 -10 6 0 10 -5 10 -11 0 -6 6 -17 12 -24 29 -33
38 -45 33 -45 -7 0 12 -24 38 -48 9 -9 17 -22 17 -29 0 -7 10 -22 23 -35 13
-13 23 -26 22 -30 0 -4 8 -17 18 -28 9 -11 17 -24 17 -29 0 -5 7 -11 15 -15 9
-3 12 -12 8 -22 -4 -10 -2 -15 3 -11 6 3 19 -8 29 -26 10 -18 24 -37 29 -44
22 -25 31 -39 45 -65 8 -16 18 -28 23 -28 4 0 8 -7 8 -15 0 -8 5 -15 10 -15 6
0 10 -7 10 -15 0 -8 5 -15 10 -15 6 0 10 -7 10 -15 0 -8 5 -15 10 -15 6 0 10
-7 10 -15 0 -8 5 -15 12 -15 6 0 8 -3 5 -7 -4 -3 2 -13 13 -20 11 -8 18 -18
15 -23 -3 -5 3 -15 15 -22 11 -7 20 -18 20 -24 0 -5 9 -20 20 -32 12 -12 18
-22 15 -22 -4 0 0 -7 7 -15 30 -33 38 -45 38 -55 0 -5 5 -10 10 -10 6 0 9 -3
8 -8 -3 -7 8 -22 44 -62 9 -10 14 -20 12 -23 -3 -3 6 -17 21 -32 14 -16 23
-30 20 -33 -2 -3 7 -15 20 -28 14 -13 25 -28 25 -34 0 -5 5 -10 10 -10 6 0 10
-6 10 -12 0 -11 12 -28 59 -84 5 -7 7 -15 4 -18 -4 -3 -2 -6 3 -6 5 0 18 -17
29 -37 11 -21 25 -42 32 -46 7 -4 13 -14 13 -22 0 -7 3 -15 8 -17 10 -5 52
-66 52 -77 0 -5 4 -11 8 -13 4 -1 26 -31 49 -65 22 -34 44 -59 47 -55 4 3 4
-1 0 -11 -4 -12 -1 -17 11 -17 9 0 15 -6 12 -12 -2 -7 7 -23 20 -35 13 -13 21
-23 18 -23 -4 0 7 -17 24 -37 16 -20 28 -40 25 -45 -3 -4 2 -8 11 -8 9 0 13
-4 10 -10 -3 -5 -2 -10 2 -10 5 0 17 -16 27 -35 10 -19 23 -32 29 -28 6 3 7 1
3 -5 -3 -6 0 -16 7 -24 7 -7 24 -31 37 -53 24 -38 43 -64 66 -89 6 -6 11 -15
11 -19 1 -5 10 -20 22 -33 12 -13 21 -28 21 -33 0 -4 9 -16 20 -26 11 -10 17
-22 14 -26 -3 -5 2 -9 11 -9 9 0 14 -4 10 -9 -3 -5 3 -17 12 -27 10 -10 18
-21 18 -26 0 -5 5 -12 10 -16 6 -4 24 -27 40 -52 17 -25 33 -46 38 -48 4 -2 7
-10 7 -18 0 -8 5 -14 10 -14 6 0 10 -7 10 -15 0 -8 4 -15 8 -15 10 0 37 -51
33 -63 -1 -5 2 -6 7 -3 4 2 19 -13 32 -35 14 -21 28 -39 32 -39 5 0 8 -6 8
-13 0 -7 9 -23 20 -35 11 -12 20 -26 20 -32 0 -5 5 -10 10 -10 6 0 10 -7 10
-15 0 -8 5 -15 10 -15 6 0 10 -7 10 -15 0 -8 4 -15 10 -15 5 0 17 -16 26 -35
9 -19 20 -35 25 -35 5 0 9 -7 9 -15 0 -7 6 -18 13 -22 16 -11 57 -69 57 -83 0
-5 5 -10 10 -10 6 0 10 -5 10 -10 0 -6 9 -20 20 -32 11 -12 20 -28 20 -35 0
-7 4 -13 8 -13 4 0 23 -25 41 -55 18 -30 37 -55 41 -55 4 0 13 -15 21 -33 7
-17 21 -39 31 -48 10 -9 15 -18 13 -21 -3 -3 4 -13 15 -23 11 -10 20 -24 20
-32 0 -7 5 -13 12 -13 6 0 9 -3 5 -6 -3 -4 -1 -12 6 -20 29 -32 37 -44 32 -44
-3 0 6 -12 20 -27 14 -16 28 -36 31 -45 3 -10 10 -18 16 -18 6 0 9 -3 5 -6 -3
-4 -1 -12 6 -20 29 -33 37 -44 37 -53 0 -6 8 -14 17 -20 10 -5 15 -13 11 -17
-4 -4 1 -14 11 -23 10 -9 21 -26 25 -38 4 -13 14 -23 22 -23 8 0 14 -7 14 -15
0 -8 4 -15 10 -15 5 0 7 -6 4 -14 -3 -7 2 -16 10 -19 9 -4 16 -13 16 -22 0 -8
5 -15 10 -15 6 0 10 -5 10 -10 0 -6 9 -20 20 -32 11 -12 20 -28 20 -35 0 -7 5
-13 10 -13 6 0 10 -5 10 -11 0 -6 6 -17 13 -24 30 -34 35 -43 30 -49 -4 -3 -1
-6 5 -6 7 0 12 -7 12 -15 0 -8 4 -15 8 -15 5 0 18 -18 31 -40 12 -22 27 -40
32 -40 6 0 8 -4 5 -8 -3 -5 4 -16 15 -25 10 -9 19 -14 19 -12 0 3 9 1 20 -5
16 -8 20 -8 20 4 0 8 9 18 20 21 11 4 18 10 15 15 -3 5 3 18 13 28 10 10 21
26 25 35 3 9 11 17 17 17 6 0 9 4 6 9 -3 4 3 16 14 26 11 10 17 21 15 25 -3 4
2 10 10 14 8 3 15 12 15 21 0 8 5 15 12 15 6 0 9 3 5 6 -3 3 2 14 11 23 35 37
50 59 45 65 -4 3 -1 6 5 6 7 0 12 6 12 14 0 8 7 17 16 20 9 4 14 9 11 12 -6 6
2 17 36 55 9 10 16 21 15 24 -2 2 4 12 12 22 18 22 46 64 51 78 2 6 15 22 29
36 14 14 26 32 28 39 2 8 9 18 15 22 7 4 8 8 4 8 -4 0 -2 6 5 14 7 8 16 12 20
9 4 -2 5 3 2 11 -3 9 -1 16 5 16 6 0 11 9 11 21 0 11 5 17 10 14 6 -4 15 7 21
23 6 17 17 33 25 36 9 3 12 10 9 16 -3 5 -1 10 4 10 6 0 11 7 11 15 0 8 5 15
10 15 6 0 10 7 10 15 0 8 4 15 8 15 5 0 15 12 23 28 7 15 26 42 41 61 15 19
25 38 22 42 -2 4 5 10 15 14 13 4 18 11 14 22 -4 11 -2 14 5 9 11 -6 17 5 13
27 0 4 3 7 8 7 5 0 28 30 52 68 24 37 49 71 56 75 7 4 13 15 13 23 0 8 7 17
15 20 8 4 12 10 9 15 -3 5 0 9 6 9 6 0 8 5 5 10 -3 6 -2 10 4 10 5 0 13 9 16
20 4 11 11 17 17 14 6 -4 8 -2 5 3 -4 6 4 23 17 38 14 16 32 45 43 66 10 20
21 35 25 33 5 -3 8 2 8 11 0 9 5 13 10 10 6 -4 10 -3 9 2 -5 16 24 62 35 56 6
-3 8 -3 4 2 -4 4 -3 14 3 22 6 7 9 13 6 13 -3 0 5 12 19 27 13 14 22 28 19 31
-3 3 4 12 15 19 11 8 18 19 15 24 -4 5 1 12 9 15 8 3 21 21 28 39 6 19 14 32
17 31 3 -2 12 2 19 10 7 8 10 14 7 14 -6 0 52 89 64 100 3 3 12 17 20 32 8 15
19 25 24 21 6 -3 7 -1 3 5 -3 6 -1 17 6 24 15 16 35 47 45 68 4 8 17 26 30 40
13 14 23 30 23 37 0 6 4 13 8 15 11 4 70 91 68 100 0 4 9 14 20 23 12 8 25 26
28 40 4 14 11 25 16 25 6 0 10 7 10 16 0 8 4 13 9 10 4 -3 16 12 26 34 10 22
23 40 28 40 6 0 7 3 4 7 -4 3 -1 11 7 17 7 6 54 73 103 148 50 76 92 136 94
135 2 -1 3 0 2 2 -2 2 2 10 8 18 6 7 8 13 3 13 -5 0 2 7 14 16 12 8 20 20 17
25 -4 5 -2 9 3 9 5 0 15 11 22 25 7 13 17 22 22 19 5 -3 8 -2 7 3 -3 11 23 63
31 63 4 0 12 11 18 25 7 14 17 31 22 38 41 48 49 61 44 68 -3 5 -1 9 5 9 5 0
28 29 50 65 23 36 46 65 52 65 5 0 8 4 5 9 -3 4 3 19 14 31 11 12 22 31 25 41
4 11 11 16 17 13 6 -4 8 -2 5 3 -4 6 4 22 17 36 13 14 21 28 19 31 -3 3 2 8
11 12 9 3 13 10 10 15 -3 5 2 12 10 15 9 3 14 9 11 14 -2 4 5 16 15 28 11 12
20 24 20 27 0 4 6 13 13 20 6 7 23 32 36 54 14 22 28 38 33 35 4 -3 5 3 1 12
-4 12 -3 15 5 10 7 -4 12 -1 12 8 0 9 9 25 20 36 11 11 20 24 20 30 0 5 7 13
16 18 9 5 15 12 15 15 -3 21 0 27 11 21 7 -4 8 -3 4 4 -4 6 2 19 14 29 11 10
20 23 20 30 0 7 5 13 10 13 6 0 10 7 10 15 0 8 5 15 10 15 6 0 10 7 10 15 0 8
5 15 11 15 5 0 8 4 5 9 -3 5 1 12 10 15 8 3 12 10 9 16 -3 5 -2 10 2 10 5 0
24 21 41 46 18 25 27 42 20 39 -7 -4 -2 3 12 16 14 13 31 36 39 52 8 15 18 27
23 27 5 0 6 5 3 10 -3 6 -3 10 2 10 4 0 22 23 38 50 17 27 33 50 38 50 4 0 7
5 7 11 0 6 6 17 13 24 26 30 37 44 37 50 0 3 16 27 36 55 20 27 32 50 27 50
-4 0 -3 4 3 8 7 4 33 39 59 77 26 39 52 73 58 76 5 4 6 12 3 18 -4 6 0 11 9
11 9 0 13 5 10 10 -3 6 -1 10 4 10 6 0 11 5 11 11 0 6 7 17 15 26 8 8 12 19 9
25 -4 7 -2 8 4 4 8 -4 16 3 22 19 5 14 14 24 18 21 4 -2 9 5 9 17 1 11 9 25
18 29 8 5 13 13 10 18 -3 4 2 10 10 14 8 3 15 12 15 21 0 8 5 15 10 15 6 0 10
7 10 15 0 9 7 18 15 21 8 4 15 12 15 19 0 6 9 20 20 30 11 10 17 22 14 26 -3
5 2 9 11 9 9 0 14 4 11 9 -5 7 2 19 43 67 5 7 7 15 4 18 -4 3 -1 6 5 6 7 0 12
5 12 10 0 6 5 16 10 23 39 47 50 62 55 78 4 11 11 19 16 19 5 0 9 5 9 10 0 6
9 20 20 32 10 12 17 24 15 28 -2 3 5 13 16 20 10 8 19 19 19 26 0 6 9 19 20
29 11 10 20 24 20 32 0 7 5 13 10 13 6 0 10 7 10 15 0 8 3 15 8 15 4 0 16 12
26 27 12 16 14 23 5 18 -8 -5 -2 4 14 21 15 16 28 34 29 39 1 6 6 15 12 22 25
28 32 39 39 56 4 10 10 16 15 13 4 -2 9 5 9 16 1 11 8 25 16 31 8 7 26 31 41
54 14 23 30 44 36 48 6 3 8 11 5 16 -4 5 1 12 9 15 9 3 16 12 16 19 0 7 7 15
15 19 8 3 15 12 15 19 0 12 8 25 49 73 5 7 7 15 4 18 -4 3 -2 6 3 6 5 0 18 16
28 35 10 19 23 32 29 28 6 -3 7 -2 4 4 -3 5 9 27 28 49 19 21 35 47 35 57 0
10 5 15 10 12 6 -3 10 -2 10 4 0 5 15 24 33 42 17 18 25 29 17 24 -8 -5 1 8
20 28 19 20 37 34 39 31 10 -9 6 -254 -4 -254 -6 0 -6 -3 0 -8 14 -9 13 -65 0
-74 -6 -5 -6 -8 1 -8 13 0 14 -31 1 -47 -6 -8 -6 -13 0 -13 13 0 12 -33 -1
-42 -7 -5 -8 -11 -1 -15 6 -5 10 -52 10 -106 0 -91 2 -99 24 -119 41 -35 74
-49 83 -35 6 9 8 8 8 -2 0 -11 4 -9 15 5 8 10 15 15 15 10 0 -6 10 4 23 21 17
24 22 43 22 86 -1 31 2 54 5 52 4 -2 7 2 7 10 0 8 -3 15 -6 15 -3 0 -6 32 -6
70 0 39 3 70 8 70 4 0 7 5 7 11 0 5 -3 8 -7 6 -5 -3 -8 46 -8 109 0 63 4 114
9 114 5 0 2 8 -5 17 -12 15 -12 16 1 8 12 -7 13 -6 5 6 -11 15 -12 95 -2 106
4 3 2 12 -4 20 -9 10 -8 17 1 28 10 12 10 15 -1 15 -12 0 -12 2 0 9 10 7 10
10 1 13 -10 3 -10 9 -2 24 8 15 8 24 1 31 -8 8 -8 17 0 30 7 14 7 23 -1 31 -9
9 -8 12 3 12 12 0 12 2 -1 10 -8 5 -10 10 -4 10 6 0 11 7 11 15 0 8 -3 15 -6
15 -3 0 -6 23 -7 51 0 42 -5 55 -25 70 -24 19 -77 23 -116 8z"/>
<path d="M9457 9850 c-15 -14 -24 -30 -20 -35 4 -4 3 -5 -3 -2 -7 4 -19 -4
-28 -18 -9 -14 -14 -25 -12 -25 3 0 -6 -12 -19 -26 -14 -15 -25 -31 -25 -36 0
-5 -5 -6 -12 -2 -6 4 -8 3 -4 -4 3 -5 -6 -24 -20 -41 -14 -17 -22 -31 -18 -31
5 0 -2 -7 -14 -16 -12 -8 -20 -19 -18 -23 3 -4 -4 -14 -15 -21 -10 -8 -19 -18
-19 -23 0 -5 -8 -19 -17 -32 -10 -12 -25 -33 -33 -45 -8 -12 -21 -28 -27 -36
-7 -7 -13 -15 -13 -19 0 -7 -38 -62 -57 -82 -6 -7 -15 -22 -18 -33 -3 -11 -11
-20 -16 -20 -6 0 -7 -5 -4 -10 3 -6 -1 -13 -9 -16 -9 -3 -16 -11 -16 -18 0 -6
-9 -18 -19 -26 -11 -7 -18 -17 -15 -22 3 -4 0 -8 -6 -8 -6 0 -9 -4 -6 -9 3 -5
-1 -12 -10 -15 -8 -3 -12 -10 -9 -16 3 -5 2 -10 -3 -10 -9 0 -60 -70 -64 -87
-2 -9 -14 -25 -46 -58 -13 -14 -20 -25 -17 -25 3 0 -5 -15 -19 -33 -15 -19
-26 -39 -26 -44 0 -6 -7 -14 -16 -17 -8 -3 -12 -10 -9 -16 3 -6 -1 -13 -9 -16
-9 -3 -13 -10 -10 -15 3 -5 1 -9 -4 -9 -5 0 -29 -31 -53 -70 -24 -38 -47 -70
-51 -70 -5 0 -8 -7 -8 -15 0 -8 -5 -15 -11 -15 -5 0 -7 -5 -4 -10 3 -6 -1 -13
-9 -16 -9 -3 -16 -12 -16 -20 0 -7 -8 -18 -17 -23 -10 -6 -14 -11 -10 -11 4 0
-1 -10 -12 -21 -11 -12 -27 -36 -35 -54 -9 -18 -22 -38 -31 -45 -8 -7 -15 -19
-15 -27 0 -7 -7 -16 -15 -19 -8 -4 -15 -12 -15 -20 0 -8 -5 -14 -12 -14 -6 0
-8 -3 -5 -7 4 -3 -2 -12 -13 -20 -11 -8 -20 -20 -20 -27 0 -7 -9 -21 -20 -31
-11 -10 -20 -24 -20 -32 0 -7 -5 -13 -11 -13 -6 0 -9 -7 -5 -15 3 -9 0 -15 -9
-15 -8 0 -15 -9 -15 -20 0 -11 -6 -19 -12 -18 -7 2 -12 -3 -10 -9 1 -7 -2 -13
-7 -13 -5 0 -13 -9 -16 -21 -4 -11 -20 -33 -35 -50 -16 -16 -27 -29 -25 -29 8
0 -46 -84 -59 -92 -6 -4 -7 -8 -2 -8 5 0 -1 -9 -13 -19 -12 -11 -22 -22 -22
-25 3 -20 -1 -26 -15 -26 -8 0 -13 -4 -10 -9 3 -4 -5 -21 -19 -37 -13 -15 -22
-31 -19 -36 3 -4 1 -8 -5 -8 -10 0 -76 -101 -73 -112 1 -5 -2 -8 -8 -8 -5 0
-17 -14 -25 -30 -9 -18 -21 -28 -27 -24 -6 4 -8 3 -4 -4 6 -10 -79 -143 -96
-150 -5 -2 -6 -8 -2 -13 3 -5 1 -9 -4 -9 -5 0 -17 -16 -28 -35 -10 -19 -23
-35 -28 -35 -5 0 -6 -3 -3 -7 4 -3 -2 -13 -13 -20 -11 -8 -18 -18 -15 -24 3
-5 -10 -24 -29 -43 -18 -19 -31 -38 -28 -41 4 -4 -2 -13 -12 -21 -11 -8 -17
-14 -13 -14 6 0 -12 -26 -40 -55 -7 -7 -9 -15 -6 -19 4 -3 1 -6 -5 -6 -7 0
-12 -5 -12 -11 0 -9 -46 -76 -80 -116 -5 -7 -10 -17 -10 -22 0 -5 -6 -16 -12
-23 -38 -40 -52 -61 -38 -54 9 4 8 2 -2 -7 -10 -8 -18 -22 -18 -31 0 -10 -4
-15 -9 -11 -5 3 -12 -4 -16 -15 -3 -11 -11 -20 -16 -20 -5 0 -9 -6 -9 -13 0
-7 -11 -24 -25 -39 -14 -15 -25 -32 -25 -38 0 -5 -5 -10 -11 -10 -5 0 -8 -4
-5 -9 3 -5 -1 -11 -9 -15 -8 -3 -15 -13 -15 -21 0 -9 -4 -13 -10 -10 -5 3 -10
1 -10 -4 0 -6 -7 -11 -15 -11 -8 0 -15 5 -15 10 0 6 -9 19 -20 30 -12 12 -18
25 -15 30 4 6 -2 10 -11 10 -10 0 -14 3 -11 6 4 4 -3 15 -15 26 -12 10 -19 21
-16 24 3 3 -5 17 -18 31 -13 14 -21 30 -17 36 3 5 2 7 -4 4 -5 -4 -16 6 -24
21 -8 15 -18 32 -22 37 -7 9 -26 37 -59 90 -7 11 -15 22 -18 25 -16 14 -50 70
-43 70 4 0 -3 7 -15 16 -12 8 -20 19 -17 24 3 4 1 10 -3 12 -10 4 -69 90 -70
101 0 5 -10 17 -21 26 -12 10 -21 23 -21 28 0 5 -8 18 -17 29 -10 10 -24 31
-32 46 -8 15 -18 25 -23 22 -4 -3 -8 4 -8 15 0 12 -4 21 -10 21 -5 0 -10 5
-10 10 0 6 -4 16 -10 23 -35 43 -79 107 -73 107 4 0 -2 7 -13 15 -10 8 -14 15
-9 15 7 0 7 3 0 8 -20 14 -64 80 -58 86 4 3 1 6 -6 6 -7 0 -17 14 -22 30 -6
17 -18 30 -26 30 -8 0 -11 5 -8 10 3 6 1 10 -4 10 -6 0 -11 7 -11 15 0 8 -4
15 -10 15 -5 0 -10 7 -10 15 0 8 -4 15 -10 15 -5 0 -10 7 -10 15 0 8 -4 15
-10 15 -5 0 -10 7 -10 15 0 8 -3 15 -8 15 -4 0 -18 18 -32 40 -14 22 -28 40
-33 40 -4 0 -6 4 -3 9 3 4 -3 16 -14 26 -11 10 -20 24 -20 31 0 7 -10 20 -22
28 -12 9 -19 16 -15 16 9 0 -31 61 -48 72 -6 5 -6 8 0 8 6 0 6 3 0 8 -6 4 -47
61 -90 127 -44 66 -88 127 -97 136 -10 9 -15 18 -13 21 3 3 -5 16 -17 30 -13
14 -24 31 -26 37 -1 7 -11 22 -22 33 -11 12 -22 30 -26 40 -3 10 -10 18 -16
18 -6 0 -8 3 -5 6 4 4 -3 15 -15 25 -11 11 -17 19 -13 19 5 0 0 7 -11 15 -10
8 -15 15 -11 15 4 0 -10 24 -31 53 -21 28 -47 67 -57 85 -11 17 -23 32 -27 32
-4 0 -8 6 -8 13 0 7 -11 25 -25 40 -14 15 -22 27 -18 27 4 0 3 4 -2 8 -6 4
-22 23 -35 42 -13 19 -29 38 -35 42 -5 4 -6 8 -1 8 4 0 -8 20 -28 44 -20 24
-36 49 -36 55 0 5 -10 21 -22 33 -13 13 -24 30 -26 38 -2 8 -10 19 -18 23 -8
4 -14 15 -14 22 0 8 -4 15 -8 15 -10 0 -43 56 -37 64 3 3 2 4 -2 1 -7 -6 -53
59 -53 75 0 6 -4 8 -10 5 -5 -3 -10 -1 -10 4 0 6 0 13 0 16 0 3 -8 14 -17 24
-10 10 -29 35 -43 55 -14 20 -33 46 -42 57 -10 12 -20 30 -23 40 -4 11 -11 19
-16 19 -6 0 -8 4 -5 9 4 5 3 11 -1 13 -12 5 -68 82 -66 89 1 4 -7 15 -17 24
-11 10 -20 24 -20 32 0 7 -4 13 -8 13 -5 0 -18 9 -30 20 -11 11 -37 22 -56 24
-29 4 -41 -1 -68 -27 -35 -34 -45 -76 -19 -78 10 0 11 -2 4 -6 -8 -3 5 -31 40
-81 28 -42 55 -78 59 -80 5 -2 8 -8 8 -13 0 -10 10 -24 42 -59 9 -10 14 -20
12 -23 -3 -2 9 -19 26 -37 16 -17 28 -36 25 -40 -3 -5 -1 -10 3 -12 11 -4 92
-124 92 -137 0 -5 4 -11 8 -13 11 -4 72 -94 72 -105 0 -5 9 -15 19 -23 11 -7
18 -17 15 -22 -3 -4 0 -8 6 -8 6 0 9 -4 5 -9 -3 -5 3 -16 12 -23 10 -7 24 -25
32 -40 8 -16 18 -28 23 -28 5 0 6 -4 3 -10 -3 -5 -2 -10 3 -10 4 0 18 -17 30
-38 18 -33 32 -52 72 -99 6 -7 8 -13 5 -13 -4 0 1 -7 9 -16 9 -8 13 -20 10
-26 -4 -7 -2 -8 4 -4 7 4 18 -7 28 -26 9 -18 22 -36 28 -40 6 -4 7 -8 3 -8 -4
0 1 -10 13 -22 11 -12 20 -28 20 -35 0 -8 4 -12 8 -9 4 2 13 -8 20 -23 7 -15
20 -36 30 -47 9 -10 23 -31 31 -46 8 -16 18 -28 23 -28 4 0 8 -7 8 -15 0 -8 4
-15 9 -15 5 0 16 -15 24 -32 9 -18 26 -44 39 -58 13 -14 24 -32 26 -40 2 -8
10 -19 18 -23 8 -4 14 -13 14 -18 0 -6 6 -17 13 -24 28 -32 37 -45 38 -52 0
-5 7 -17 17 -28 9 -11 23 -33 31 -48 8 -15 18 -27 23 -27 4 0 8 -7 8 -15 0 -8
5 -15 10 -15 6 0 10 -7 10 -15 0 -8 5 -15 12 -15 6 0 9 -3 6 -6 -3 -3 4 -16
16 -29 12 -13 28 -36 36 -52 8 -15 21 -32 27 -36 7 -4 22 -28 33 -52 11 -25
25 -45 31 -45 6 0 7 -4 4 -10 -3 -5 1 -10 10 -10 9 0 13 -4 10 -10 -3 -5 -1
-10 6 -10 7 0 10 -3 6 -6 -3 -4 -1 -12 6 -20 30 -34 37 -44 30 -44 -4 0 -3 -4
2 -8 21 -15 74 -100 67 -107 -4 -5 -1 -5 6 -1 11 7 17 -5 13 -27 -1 -5 3 -6 9
-2 5 3 10 2 10 -3 0 -4 9 -18 20 -30 12 -12 18 -22 14 -22 -4 0 5 -13 20 -29
15 -16 26 -31 24 -34 -1 -3 7 -17 19 -31 13 -14 20 -26 15 -26 -4 0 1 -5 11
-11 9 -5 17 -17 17 -24 0 -8 5 -15 10 -15 6 0 10 -7 10 -15 0 -8 5 -15 10 -15
6 0 10 -7 10 -15 0 -8 5 -15 10 -15 6 0 10 -7 10 -15 0 -8 5 -15 10 -15 6 0
10 -7 10 -15 0 -8 5 -15 10 -15 6 0 10 -9 10 -21 0 -11 4 -18 8 -15 5 3 15 -7
23 -22 8 -15 20 -31 27 -35 7 -5 10 -12 7 -18 -4 -5 -1 -9 4 -9 6 0 11 -6 11
-13 0 -7 9 -20 20 -30 11 -9 20 -24 20 -32 0 -8 5 -15 10 -15 6 0 10 -7 10
-15 0 -8 4 -15 8 -15 5 0 15 -12 23 -27 8 -16 24 -39 37 -53 12 -14 25 -33 28
-42 3 -10 10 -18 15 -18 5 0 9 -6 9 -13 0 -7 8 -22 19 -33 22 -25 46 -66 43
-76 -1 -5 2 -8 7 -8 6 0 20 -18 32 -40 13 -22 27 -40 31 -40 5 0 7 -4 4 -8 -3
-5 7 -22 22 -39 15 -16 36 -45 46 -64 11 -19 25 -39 30 -46 30 -34 36 -43 31
-43 -3 0 0 -7 7 -15 30 -36 52 -54 60 -49 4 3 8 1 8 -3 0 -5 15 -8 33 -6 17 2
38 4 45 5 6 1 12 5 12 10 0 5 3 7 8 5 9 -6 52 39 45 47 -4 3 1 6 11 6 9 0 15
4 12 8 -3 5 8 24 24 43 16 19 29 37 30 41 0 4 15 28 33 53 17 25 39 59 48 75
9 16 19 27 23 23 3 -3 6 1 6 10 0 9 5 17 10 17 6 0 10 7 10 15 0 8 4 15 10 15
5 0 9 6 7 13 -1 6 4 11 10 10 7 -2 12 0 12 5 -3 20 2 32 13 26 6 -4 8 -3 4 4
-3 6 1 17 9 25 8 9 15 20 15 25 0 5 9 17 20 27 11 10 20 23 20 30 0 7 9 20 21
31 12 10 30 36 40 57 13 24 24 35 32 31 7 -4 9 -4 5 1 -4 4 1 20 12 35 11 16
20 31 20 34 0 4 9 17 21 29 11 12 28 36 36 52 9 17 21 33 27 37 6 4 11 12 11
18 0 6 7 15 15 20 8 5 11 10 6 10 -5 0 1 9 13 19 12 11 22 22 22 25 -1 17 12
35 22 29 5 -3 7 -1 3 5 -3 6 1 18 10 26 8 9 13 16 9 16 -3 0 3 10 15 22 11 12
20 25 20 29 0 4 6 14 13 21 7 7 24 31 37 53 34 56 67 95 74 87 4 -3 4 1 0 11
-3 10 -1 17 5 17 6 0 11 7 11 15 0 8 5 15 10 15 6 0 10 7 10 15 0 8 5 15 10
15 6 0 10 7 10 16 0 8 4 13 8 10 4 -2 14 10 22 27 7 18 19 37 24 44 29 33 36
43 36 51 0 5 11 21 24 35 13 14 22 28 20 30 -2 2 5 12 16 22 11 10 20 24 20
32 0 7 5 13 12 13 6 0 8 3 5 7 -4 3 2 13 13 20 11 8 18 18 15 23 -3 5 4 15 15
23 11 7 17 17 13 20 -3 4 -1 7 6 7 7 0 9 5 6 10 -3 6 -3 10 2 10 4 0 22 23 38
50 17 27 33 50 38 50 4 0 7 5 7 10 0 6 18 35 40 65 22 30 38 55 34 55 -4 0 4
10 17 23 14 12 24 25 24 28 0 3 8 17 18 30 10 13 17 26 15 29 -1 3 9 19 24 35
15 17 27 33 27 38 1 4 9 16 19 26 32 36 42 50 54 76 6 14 16 25 21 25 6 0 8 3
4 6 -6 6 2 18 34 52 14 15 23 33 28 54 1 4 15 22 31 40 17 18 30 36 30 41 0 4
13 22 30 40 16 18 30 37 30 43 0 6 9 19 20 29 11 10 20 24 20 32 0 7 4 13 10
13 5 0 9 6 7 13 -1 6 4 11 10 10 7 -2 12 0 10 5 -2 7 60 111 73 122 3 3 16 22
29 43 13 21 28 43 35 50 7 6 21 27 31 45 11 17 23 32 27 32 4 0 8 7 8 15 0 8
5 15 11 15 5 0 8 4 4 9 -3 6 1 13 8 18 7 4 23 25 36 46 12 20 27 37 32 37 6 0
8 4 4 9 -3 5 3 17 12 27 10 10 18 20 19 23 1 14 40 71 47 71 5 0 5 5 2 10 -3
6 -1 10 5 10 6 0 8 5 5 10 -3 6 1 10 10 10 9 0 13 5 10 10 -3 6 1 13 9 16 9 3
13 10 10 15 -3 5 0 9 5 9 6 0 11 7 11 15 0 8 5 15 11 15 5 0 7 5 4 10 -3 6 -2
10 2 10 5 0 19 20 30 44 17 34 19 46 10 56 -9 10 -9 11 3 5 13 -8 13 -7 1 11
-50 66 -98 78 -144 34z"/>
<path d="M4098 9818 c-34 -31 -33 -29 -12 -70 15 -30 24 -42 51 -72 7 -8 9
-16 6 -20 -4 -3 -1 -6 6 -6 7 0 9 -4 6 -10 -3 -5 1 -10 9 -10 9 0 16 -7 16
-15 0 -15 6 -25 38 -60 6 -7 12 -18 12 -24 0 -5 8 -15 18 -20 9 -6 13 -11 9
-11 -4 0 1 -10 13 -22 11 -12 20 -28 20 -35 0 -7 5 -13 10 -13 6 0 10 -7 10
-15 0 -8 5 -15 10 -15 6 0 10 -7 10 -15 0 -8 3 -15 8 -15 4 0 18 -18 32 -40
14 -22 28 -40 32 -40 5 0 7 -3 6 -7 -2 -8 30 -63 43 -73 3 -3 14 -20 23 -37 9
-18 21 -33 26 -33 6 0 10 -6 10 -14 0 -8 3 -16 8 -18 10 -4 72 -94 72 -105 0
-4 9 -14 20 -21 11 -7 20 -19 20 -27 0 -8 5 -15 10 -15 6 0 10 -7 10 -15 0 -8
5 -15 10 -15 6 0 10 -6 10 -13 0 -7 9 -23 20 -35 12 -12 17 -22 13 -22 -4 0 0
-5 10 -11 9 -5 17 -17 17 -24 0 -8 5 -15 10 -15 6 0 10 -6 10 -14 0 -8 7 -17
16 -20 9 -4 14 -9 11 -12 -3 -4 3 -15 14 -27 10 -11 19 -27 19 -34 0 -8 5 -11
10 -8 6 3 10 -1 10 -9 0 -9 5 -16 10 -16 6 0 10 -6 10 -14 0 -8 4 -16 9 -18 5
-1 11 -9 13 -17 2 -7 14 -25 27 -40 13 -14 39 -51 58 -81 20 -30 39 -57 43
-60 3 -3 15 -20 25 -37 11 -18 23 -33 28 -33 4 0 5 -4 2 -10 -3 -5 -3 -10 2
-10 4 0 24 -25 43 -55 19 -30 38 -55 43 -55 4 0 7 -9 7 -21 0 -11 4 -18 9 -14
5 3 12 -4 16 -15 3 -11 11 -20 16 -20 6 0 7 -4 4 -10 -3 -5 -2 -10 4 -10 5 0
13 -9 16 -20 4 -11 17 -32 31 -45 13 -13 24 -29 24 -34 0 -6 8 -15 18 -20 9
-6 13 -11 9 -11 -5 0 5 -18 22 -39 17 -21 31 -42 31 -45 0 -3 10 -17 23 -32
12 -14 22 -29 22 -32 0 -4 10 -16 22 -28 12 -12 20 -24 16 -27 -3 -4 -1 -7 5
-7 6 0 14 -9 17 -20 4 -11 17 -31 29 -43 12 -12 23 -25 24 -30 3 -12 33 -58
65 -99 16 -21 26 -38 22 -38 -4 0 3 -9 16 -20 13 -10 21 -19 17 -20 -5 0 1 -9
12 -20 12 -12 18 -25 15 -29 -2 -5 2 -12 11 -15 9 -4 14 -9 11 -12 -3 -4 -1
-12 6 -20 33 -36 37 -45 31 -56 -4 -6 -3 -9 2 -6 11 7 35 -17 27 -26 -3 -3 2
-8 11 -12 9 -3 13 -10 10 -15 -3 -5 0 -9 6 -9 6 0 9 -4 5 -9 -3 -6 3 -14 12
-20 10 -6 14 -11 8 -11 -6 0 -6 -3 1 -8 16 -11 74 -99 74 -112 0 -6 5 -8 10
-5 6 3 10 -3 10 -15 0 -12 3 -19 8 -16 4 2 16 -13 26 -35 11 -21 23 -39 28
-39 4 0 8 -10 8 -22 0 -19 2 -20 10 -8 8 13 10 12 10 -2 0 -10 9 -27 20 -38
11 -11 19 -22 18 -25 -2 -2 5 -14 15 -25 9 -11 17 -23 17 -26 0 -2 9 -14 20
-26 11 -12 20 -28 20 -35 0 -8 5 -11 10 -8 6 3 10 -3 10 -14 0 -11 8 -25 18
-30 9 -6 14 -11 10 -11 -7 0 11 -25 40 -55 6 -8 12 -21 12 -31 0 -10 3 -15 6
-11 6 6 54 -57 54 -71 0 -4 9 -14 19 -22 11 -7 18 -17 16 -21 -3 -4 6 -18 20
-30 13 -13 25 -29 25 -35 0 -6 7 -17 15 -24 9 -7 13 -15 11 -17 -4 -4 1 -12
52 -68 12 -14 20 -25 16 -25 -3 0 6 -16 20 -35 15 -19 24 -35 20 -35 -4 0 3
-9 16 -20 13 -11 19 -20 14 -20 -5 0 -1 -5 9 -11 9 -5 17 -17 17 -24 0 -8 5
-15 11 -15 5 0 7 -4 4 -10 -3 -5 1 -10 10 -10 9 0 13 -4 10 -10 -3 -5 -1 -10
6 -10 7 0 10 -3 6 -6 -3 -3 -1 -11 4 -18 42 -50 53 -64 65 -88 8 -16 19 -28
24 -28 6 0 10 -3 9 -7 -1 -5 2 -19 6 -31 5 -16 10 -20 15 -12 5 8 10 2 14 -15
4 -15 16 -36 26 -48 11 -11 20 -27 20 -34 0 -7 5 -13 10 -13 6 0 10 -7 10 -15
0 -9 7 -18 15 -21 8 -4 12 -10 9 -15 -4 -8 17 -14 39 -10 4 0 7 -4 7 -10 0 -8
4 -9 13 0 8 6 17 8 20 4 4 -3 7 -1 7 5 0 7 5 12 11 12 5 0 7 -6 3 -12 -5 -9
-2 -9 9 1 9 7 17 19 17 27 0 7 6 17 13 21 16 10 39 62 32 73 -3 5 1 11 7 13 9
4 9 6 1 6 -6 1 -9 10 -5 23 3 14 2 19 -6 14 -8 -5 -12 0 -12 13 0 12 -4 21 -8
21 -5 0 -14 16 -22 35 -8 19 -17 35 -22 35 -4 0 -8 4 -8 10 0 9 -6 18 -52 72
-10 11 -15 25 -11 31 3 5 2 8 -3 5 -11 -7 -35 17 -27 26 4 3 1 6 -6 6 -7 0
-10 4 -6 9 3 6 -3 14 -12 20 -10 6 -14 11 -9 11 5 0 -1 8 -12 19 -12 10 -19
21 -15 24 3 4 -2 9 -11 13 -9 3 -16 12 -16 20 0 8 -4 14 -10 14 -5 0 -10 5
-10 10 0 6 -8 19 -17 29 -29 31 -43 50 -46 58 -1 5 -5 7 -9 6 -5 -2 -8 6 -8
18 0 11 -4 17 -10 14 -5 -3 -10 0 -10 8 0 8 -9 24 -20 37 -11 13 -20 29 -20
37 0 8 -4 12 -9 9 -7 -5 -27 27 -29 47 0 5 -10 17 -21 26 -12 10 -21 23 -21
30 0 6 -9 16 -20 23 -11 7 -20 17 -20 22 0 5 -11 24 -26 43 -14 18 -22 33 -19
33 3 0 -6 11 -20 25 -14 14 -25 30 -25 34 0 4 -9 18 -20 31 -11 12 -17 28 -13
34 3 6 3 8 -2 4 -10 -10 -48 39 -40 52 3 5 -1 10 -9 10 -8 0 -18 9 -21 20 -4
11 -11 17 -17 14 -7 -5 -8 -2 -3 5 4 8 -1 21 -14 32 -12 11 -21 24 -21 30 0 5
-10 20 -23 32 -13 12 -26 30 -30 40 -3 9 -11 17 -16 17 -6 0 -7 7 -4 17 4 11
3 14 -5 9 -7 -4 -12 -1 -12 8 0 9 -4 16 -10 16 -5 0 -10 9 -10 20 0 11 -6 19
-12 18 -7 -2 -12 3 -10 10 1 6 -5 12 -14 12 -8 0 -12 5 -9 10 4 6 -7 24 -24
41 -32 32 -40 45 -18 33 6 -4 -5 10 -26 32 -21 21 -47 56 -58 77 -11 21 -26
40 -34 44 -8 3 -13 9 -10 13 3 4 -2 10 -10 14 -8 3 -15 12 -15 21 0 8 -3 15
-8 15 -4 0 -22 23 -40 50 -18 28 -37 50 -43 50 -6 0 -7 4 -4 10 3 5 -5 21 -19
35 -14 14 -26 28 -26 30 0 3 -9 18 -21 34 -12 16 -21 32 -20 36 1 4 -7 15 -18
24 -12 10 -21 23 -21 29 0 6 -4 12 -8 14 -4 2 -18 20 -31 41 -13 22 -27 34
-34 30 -7 -3 -9 -3 -5 2 8 9 -20 66 -39 78 -7 4 -20 23 -29 42 -9 19 -20 35
-25 35 -5 0 -9 7 -9 16 0 8 -4 12 -10 9 -5 -3 -10 1 -10 9 0 9 -5 16 -10 16
-6 0 -9 3 -9 8 3 19 -2 33 -11 27 -5 -3 -10 -1 -10 5 0 6 -18 35 -40 64 -22
29 -40 56 -40 60 0 4 -11 19 -24 33 -14 15 -23 30 -20 35 3 4 1 8 -4 8 -5 0
-24 24 -42 53 -19 28 -42 60 -53 69 -10 9 -17 18 -15 20 3 4 -60 97 -79 116
-7 8 -10 18 -7 24 4 6 3 8 -3 5 -5 -3 -18 8 -28 26 -10 18 -27 42 -38 55 -11
12 -17 22 -14 22 4 0 -1 9 -10 19 -26 29 -36 43 -52 73 -8 15 -19 25 -24 21
-6 -3 -7 -2 -4 4 5 8 -8 28 -55 83 -7 8 -11 16 -9 18 1 2 -6 15 -18 28 -12 13
-21 28 -21 33 0 5 -7 12 -16 15 -8 3 -13 10 -10 15 4 5 3 11 -1 13 -12 5 -53
66 -53 78 0 5 -4 10 -10 10 -5 0 -17 14 -26 32 -9 17 -20 36 -25 42 -50 62
-59 75 -59 83 0 5 -9 15 -20 23 -11 8 -20 21 -20 30 0 9 -9 22 -20 30 -11 8
-20 19 -20 25 0 6 -9 21 -20 33 -12 12 -18 22 -15 22 4 0 0 7 -7 15 -30 33
-38 45 -38 55 0 5 -4 10 -10 10 -5 0 -10 6 -10 13 0 7 -9 23 -20 35 -11 12
-20 26 -20 32 0 5 -4 10 -10 10 -5 0 -10 5 -10 10 0 6 -12 24 -27 41 -16 17
-26 37 -25 43 2 6 1 8 -3 4 -4 -3 -15 2 -26 13 -11 11 -24 17 -29 14 -6 -4
-10 -2 -10 3 0 5 -19 9 -41 8 -31 0 -49 -8 -71 -28z"/>
</g>
</svg>
